<svg xmlns="http://www.w3.org/2000/svg" viewBox="0 0 826.21 401.91"><defs><style>.cls-1{fill:none;stroke:#ffdcdc;stroke-miterlimit:10;stroke-width:7px;}</style></defs><g id="Layer_2" data-name="Layer 2"><g id="Layer_1-2" data-name="Layer 1"><line class="cls-1" y1="3.5" x2="826.21" y2="3.5"/><line class="cls-1" y1="16.24" x2="826.21" y2="16.24"/><line class="cls-1" y1="28.98" x2="826.21" y2="28.98"/><line class="cls-1" y1="41.72" x2="826.21" y2="41.72"/><line class="cls-1" y1="54.46" x2="826.21" y2="54.46"/><line class="cls-1" y1="67.2" x2="826.21" y2="67.2"/><line class="cls-1" y1="79.93" x2="826.21" y2="79.93"/><line class="cls-1" y1="92.67" x2="826.21" y2="92.67"/><line class="cls-1" y1="105.41" x2="826.21" y2="105.41"/><line class="cls-1" y1="118.15" x2="826.21" y2="118.15"/><line class="cls-1" y1="130.89" x2="826.21" y2="130.89"/><line class="cls-1" y1="143.63" x2="826.21" y2="143.63"/><line class="cls-1" y1="156.37" x2="826.21" y2="156.37"/><line class="cls-1" y1="169.11" x2="826.21" y2="169.11"/><line class="cls-1" y1="181.85" x2="826.21" y2="181.85"/><line class="cls-1" y1="194.59" x2="826.21" y2="194.59"/><line class="cls-1" y1="207.33" x2="826.21" y2="207.33"/><line class="cls-1" y1="220.07" x2="826.21" y2="220.07"/><line class="cls-1" y1="232.8" x2="826.21" y2="232.8"/><line class="cls-1" y1="245.54" x2="826.21" y2="245.54"/><line class="cls-1" y1="258.28" x2="826.21" y2="258.28"/><line class="cls-1" y1="271.02" x2="826.21" y2="271.02"/><line class="cls-1" y1="283.76" x2="826.21" y2="283.76"/><line class="cls-1" y1="296.5" x2="826.21" y2="296.5"/><line class="cls-1" y1="309.24" x2="826.21" y2="309.24"/><line class="cls-1" y1="321.98" x2="826.21" y2="321.98"/><line class="cls-1" y1="334.72" x2="826.21" y2="334.72"/><line class="cls-1" y1="347.46" x2="826.21" y2="347.46"/><line class="cls-1" y1="360.2" x2="826.21" y2="360.2"/><line class="cls-1" y1="372.93" x2="826.21" y2="372.93"/><line class="cls-1" y1="385.67" x2="826.21" y2="385.67"/><line class="cls-1" y1="398.41" x2="826.21" y2="398.41"/></g></g></svg>