<svg id="Layer_2" data-name="Layer 2" xmlns="http://www.w3.org/2000/svg" xmlns:xlink="http://www.w3.org/1999/xlink" width="837.712" height="595.34" viewBox="0 0 837.712 595.34">
  <defs>
    <linearGradient id="linear-gradient" x1="0.5" y1="1.12" x2="0.5" y2="-0.144" gradientUnits="objectBoundingBox">
      <stop offset="0" stop-color="#8f8576"/>
      <stop offset="1" stop-color="#bda791"/>
    </linearGradient>
    <clipPath id="clip-path">
      <rect id="Rectangle_11" data-name="Rectangle 11" width="163.54" height="248.39" fill="none"/>
    </clipPath>
    <linearGradient id="linear-gradient-2" x1="0.5" y1="1" x2="0.5" gradientUnits="objectBoundingBox">
      <stop offset="0" stop-color="#fff"/>
      <stop offset="1" stop-color="#2accff"/>
    </linearGradient>
  </defs>
  <g id="Layer_1" data-name="Layer 1" transform="translate(0)">
    <path id="Path_1" data-name="Path 1" d="M837.712,238.31v357H398.1c-192.468,0-348.477-48.17-348.477-107.58V0H597.7C730.258,0,837.712,106.69,837.712,238.31Z" transform="translate(0)" fill="#fff"/>
    <rect id="Rectangle_3" data-name="Rectangle 3" width="186.96" height="272.33" transform="translate(210.472 50.79)" fill="#a67859"/>
    <path id="Path_2" data-name="Path 2" d="M747.252,487.76c0,59.41-156.174,107.58-348.8,107.58S49.65,547.17,49.65,487.76Z" transform="translate(0)" fill="#fff"/>
    <rect id="Rectangle_4" data-name="Rectangle 4" width="183.54" height="268.39" transform="translate(213.922 50.79)" fill="#dc925e"/>
    <path id="Path_3" data-name="Path 3" d="M624.08,462a108.465,108.465,0,0,1-2.77,24.44,2.494,2.494,0,0,1-.09.37,2.229,2.229,0,0,0,0-.37H433.78A108.469,108.469,0,0,1,431,462c0-2.84.11-5.66.33-8.43.24-3.27.64-6.5,1.17-9.67,8.05-47.94,47.54-84.34,95-84.34s87,36.4,95,84.34a108.893,108.893,0,0,1,1.58,18.1Z" transform="translate(3.778)" fill="#fff" stroke="#b3b3b3" stroke-miterlimit="10" stroke-width="1"/>
    <path id="Path_4" data-name="Path 4" d="M621.55,478.73q0,4.06-.3,8H428.78q-.3-4-.3-8A107.858,107.858,0,0,1,431.34,454a99.943,99.943,0,0,1,2.75-9.65c13.34-39.54,49-67.84,90.92-67.84s77.59,28.3,90.93,67.84a107.46,107.46,0,0,1,5.61,34.38Z" transform="translate(3.756)" fill="#e35c7b"/>
    <rect id="Rectangle_5" data-name="Rectangle 5" width="122.18" height="486.78" transform="translate(12.88)" fill="#a6cada"/>
    <path id="Path_5" data-name="Path 5" d="M830.6,462v1.06a27.754,27.754,0,0,1-27.848,27.67H12.967A12.924,12.924,0,0,1,0,477.88a30.994,30.994,0,0,1,9.171-22.011,31.419,31.419,0,0,1,22.16-9.109H265.44a11.2,11.2,0,0,0,9.333,5H521.658v-5h293.57A15.322,15.322,0,0,1,830.6,462Z" transform="translate(0)" fill="url(#linear-gradient)"/>
    <path id="Path_6" data-name="Path 6" d="M591.43,447.34c-17.34,10-72.2,44.8-112.31,105.36a3,3,0,0,1-4.94,0c-11.05-17-58.14-85.75-111.88-106.06a1.18,1.18,0,0,1,.41-2.29h227.9a1.62,1.62,0,0,1,.82,2.99Z" transform="translate(3.367)" fill="#e8e3d4"/>
    <path id="Path_7" data-name="Path 7" d="M166.15,430.9h84.68v19.86H166.15a6.23,6.23,0,0,1-6.23-6.23v-7.4A6.23,6.23,0,0,1,166.15,430.9Z" transform="translate(1.209)" fill="#ffb2b2"/>
    <path id="Path_8" data-name="Path 8" d="M0,0H14.65V81.4a6.51,6.51,0,0,1-6.51,6.51H6.51A6.51,6.51,0,0,1,0,81.4Z" transform="translate(252.056 433.5) rotate(90)" fill="#fff"/>
    <path id="Path_9" data-name="Path 9" d="M154,408h84.68v22.9H154a6.23,6.23,0,0,1-6.23-6.23v-10.4A6.23,6.23,0,0,1,154,408Z" transform="translate(1.117)" fill="#995c87"/>
    <path id="Path_10" data-name="Path 10" d="M0,0H16.86V81.4a6.51,6.51,0,0,1-6.51,6.51H6.51A6.51,6.51,0,0,1,0,81.4V0Z" transform="translate(239.825 411.03) rotate(90)" fill="#fff"/>
    <path id="Path_11" data-name="Path 11" d="M164.74,391.65h84.68V408H164.74a6.23,6.23,0,0,1-6.23-6.23v-3.92a6.23,6.23,0,0,1,6.23-6.2Z" transform="translate(1.198)" fill="#5c9999"/>
    <path id="Path_12" data-name="Path 12" d="M0,0H12.08V81.87a6,6,0,0,1-6,6h0a6,6,0,0,1-6-6V0Z" transform="translate(250.636 393.8) rotate(90)" fill="#fff"/>
    <path id="Path_13" data-name="Path 13" d="M518.14,446.76v5H272.92a11.1,11.1,0,0,1-9.27-5Z" transform="translate(2.557)" fill="#719999"/>
    <path id="Path_14" data-name="Path 14" d="M518.14,445.56v1.2H263.65a11.5,11.5,0,0,1-1.15-2.3l-33.81-93.9c-2.13-5.38,2.15-12.38,8.08-12.38h168a11.089,11.089,0,0,1,10.419,7.3L448.38,436.85h61.09a8.71,8.71,0,0,1,8.67,8.71Z" transform="translate(2.358)" fill="#88a9bd"/>
    <ellipse id="Ellipse_1" data-name="Ellipse 1" cx="33.34" cy="32.97" rx="33.34" ry="32.97" transform="translate(459.64 97.65)" fill="#dec365"/>
    <path id="Path_15" data-name="Path 15" d="M117.59,420.46v5.23a26.07,26.07,0,0,1-26.07,26.07H68.09a26.17,26.17,0,0,1-26.17-26.17v-5.23a26.17,26.17,0,0,0,26.17,26.17H91.52a26.07,26.07,0,0,0,26.07-26.07Z" transform="translate(0)" fill="#7d493e"/>
    <path id="Path_16" data-name="Path 16" d="M117.59,379.65v40.81a26.07,26.07,0,0,1-26.07,26.07H68.09a26.17,26.17,0,0,1-26.17-26.17V379.65a3.55,3.55,0,0,1,3.55-3.56H114a3.56,3.56,0,0,1,3.59,3.56Z" transform="translate(0)" fill="#a66152"/>
    <rect id="Rectangle_6" data-name="Rectangle 6" width="94.29" height="24.85" rx="6.75" transform="translate(32.61 355.01)" fill="#a66152"/>
    <path id="Path_17" data-name="Path 17" d="M84.13,355s3.39-42.54,22.59-57.6,54.59-22.59,85.84-4.9c0,0-34.64,48.47-93,26.12,0,0-7.15,5.13-10.54,36.38Z" transform="translate(0)" fill="#8c8e49"/>
    <path id="Path_18" data-name="Path 18" d="M79.75,355s-2.29-40.72-11-63.49C64.93,281.73,50.63,256,7,247.71c0,0-5.65,75.3,63.24,68.14,0,0,3.77,6,4.66,39.16Z" transform="translate(0)" fill="#a3a56d"/>
    <path id="Path_19" data-name="Path 19" d="M79.75,355s-4.38-41.6,4.38-64.38c3.77-9.79,16.94-37.65,71.53-53.46,0,0-.37,79.44-69.27,72.28,0,0-4.89,10.92-1.74,45.56Z" transform="translate(0)" fill="#3b471f"/>
    <rect id="Rectangle_7" data-name="Rectangle 7" width="75.67" height="4.15" transform="translate(41.92 379.85)" fill="#7d493e"/>
    <path id="Path_20" data-name="Path 20" d="M553.58,130.62c0-34.93-28.63-63.24-63.94-63.24s-63.95,28.31-63.95,63.24Z" transform="translate(3.386)" fill="#9eb2bb"/>
    <rect id="Rectangle_8" data-name="Rectangle 8" width="3.65" height="71.15" transform="translate(491.109)" fill="#c7c4b7"/>
    <path id="Path_21" data-name="Path 21" d="M622.49,406.84c-1-8.24-6.9-10.49-13.79-10.49-7.22,0-6.78,6-6.78,16.65,0,9.19-.1,16.65,6.78,16.65S623.81,417.79,622.49,406.84Zm-10,14a7.39,7.39,0,0,1-3.21,2.54.94.94,0,0,1-1.22-.9V403.73a1.39,1.39,0,0,1,1.41-1.39c2.35,0,6.85.63,7.3,5.25.44,5.01-1.85,10.2-4.32,13.29Z" transform="translate(4.156)" fill="#7d98a3" stroke="#7d98a3" stroke-miterlimit="10" stroke-width="1"/>
    <path id="Path_22" data-name="Path 22" d="M610.16,384.44v55.75a11.57,11.57,0,0,1-11.57,11.57h-30.7a11.54,11.54,0,0,1-9.79-5.41,11.47,11.47,0,0,0,6.68,2.12h30.7a11.57,11.57,0,0,0,11.57-11.56V381.15a3.573,3.573,0,0,0,0-.47,3.82,3.82,0,0,1,3.11,3.76Z" transform="translate(4.008)" fill="#7d98a3" stroke="#7d98a3" stroke-miterlimit="10" stroke-width="1"/>
    <path id="Path_23" data-name="Path 23" d="M607.05,381.15v55.76a11.57,11.57,0,0,1-11.57,11.56h-30.7a7.12,7.12,0,0,1-8.46-8.28V384.44a3.83,3.83,0,0,1,3.82-3.83h46.19a3.109,3.109,0,0,1,.69.07A3.58,3.58,0,0,1,607.05,381.15Z" transform="translate(3.988)" fill="#a6cada" stroke="#7d98a3" stroke-miterlimit="10" stroke-width="1"/>
    <path id="Path_24" data-name="Path 24" d="M832.11,451v88c-3.15.22-6.73.38-10.68.41l4.11-9.47c.72-1.65,1.43-3.59.59-5.19a4,4,0,0,0-4.38-1.67,8.649,8.649,0,0,0-4.15,2.73c-2.7,2.86-4.6,6.39-7.07,9.46a32.183,32.183,0,0,1-3.44,3.66c-5.14-.38-10.63-1-16.4-2a32.111,32.111,0,0,1,8.18-7.76c2.07-1.36,4.36-2.53,5.87-4.49s1.94-5.07.15-6.78c-2.3-2.19-6-.64-8.77,1l-23.35,14A168.352,168.352,0,0,1,756,527.22c.69-.76,1.44-1.47,2.18-2.17l14.35-13.52c1.91-1.8,4-4.2,3.23-6.7s-4-3.35-6.48-2.49-4.24,2.9-6,4.76a65.151,65.151,0,0,1-20.42,14.17A165.481,165.481,0,0,1,722,508.81l.57-.52c5.62-5.12,11.31-10.3,18-13.89a16.831,16.831,0,0,0,4.7-3.1c1.28-1.4,1.94-3.56,1-5.2a4.41,4.41,0,0,0-4.21-1.92,11.4,11.4,0,0,0-4.54,1.7c-8.38,4.78-15.39,11.68-23.33,17.11a175.788,175.788,0,0,1-16.21-14.58A45.631,45.631,0,0,1,712.6,478.1c2.25-1,4.74-1.94,6-4s.18-5.65-2.27-5.58a4.751,4.751,0,0,0-1.61.43c-8,3.31-14.28,10-21.84,14.11a204.745,204.745,0,0,1-18.07-23.09q7.23-3.26,14.33-6.75c2.42-1.19,5.24-3.14,4.77-5.8-.36-2-2.69-3.24-4.76-3.1s-3.93,1.26-5.72,2.31c-4.18,2.46-8.49,4.71-12.89,6.75a253.526,253.526,0,0,1-14.77-27.26s18.8-5.12,46.77-6.35q1.27,6.11,2.56,12.22c.37,1.74.89,3.71,2.48,4.52a4.05,4.05,0,0,0,4.67-1.2,10.65,10.65,0,0,0,2.1-4.69,70.929,70.929,0,0,0,1.87-11.12c3.19,0,6.47.1,9.82.25,3,.13,6.08.31,9.2.56a62.179,62.179,0,0,1,.91,9.63,61.309,61.309,0,0,0,.4,9.1q.08.48.18,1a4.77,4.77,0,0,0,1,2.3c1.32,1.4,3.81.94,5.14-.45s1.79-3.39,2.14-5.28l.18-1c.8-4.64,1.27-9.34,1.61-14.05q7.64,1,15.55,2.48l1,4.87c.62,2.92,1.23,5.83,1.85,8.75l1.95,9.26a10.34,10.34,0,0,0,1.86,4.75c1.12,1.31,3.21,2,4.6.95s1.42-2.92,1.39-4.57l-.51-21.29c6.19,1.57,12.43,3.43,18.7,5.64l2.3,22.82a14.671,14.671,0,0,0,1.46,5.9c1.09,1.88,4,3.09,5.33,1.35a4.25,4.25,0,0,0,.63-2c.34-2.42.66-4.84.94-7.27.61-5.36,1-10.75,1.22-16.14,4.09,1.74,8.18,3.65,12.24,5.72a156,156,0,0,0,3.86,25.26,10.75,10.75,0,0,0,2,4.77c1.16,1.31,3.23,2,4.7,1.05a5.15,5.15,0,0,0,1.88-3.6c1.27-6.94-.3-14.05-1-21.1A18.663,18.663,0,0,1,832.11,451Z" transform="translate(5.602)" fill="#8c8e49"/>
    <path id="Path_25" data-name="Path 25" d="M832.11,422.23v65a11.28,11.28,0,0,0-2.85,1.3c-3.36,2.06-6.12,5-9.3,7.28a32.9,32.9,0,0,1-4.28,2.62c-4.86-1.71-10-3.77-15.31-6.22a32.069,32.069,0,0,1,9.93-5.35c2.36-.76,4.87-1.29,6.85-2.78s3.2-4.38,1.92-6.5c-1.64-2.72-5.67-2.21-8.72-1.35l-26.21,7.39a167.179,167.179,0,0,1-14.69-9.88c.86-.55,1.77-1,2.67-1.52l17.4-9.28c2.31-1.23,5-3,4.87-5.62s-3-4.29-5.6-4.1-4.85,1.69-7.07,3a65.171,65.171,0,0,1-23.43,8.32,166,166,0,0,1-16.77-17.49l.68-.35c6.77-3.47,13.63-7,21-8.67.69-.16,1.4-.3,2.09-.48a11,11,0,0,0,3.26-1.28c1.6-1,2.81-2.92,2.34-4.74a4.42,4.42,0,0,0-3.56-3,9.49,9.49,0,0,0-3.89.23c-.32.06-.63.14-.94.22a115.745,115.745,0,0,0-17.24,6.48c-2.87,1.23-5.74,2.45-8.66,3.5l-1.1.39a177.739,177.739,0,0,1-11.81-18.33q1.18-.72,2.4-1.35A45.421,45.421,0,0,1,740.54,415c2.44-.37,5.09-.62,6.88-2.31s1.66-5.41-.73-6a4.691,4.691,0,0,0-1.67,0c-8.6,1.08-16.41,5.94-24.78,7.87a203.63,203.63,0,0,1-11.36-27q7.83-1.25,15.6-2.74c2.65-.51,5.88-1.66,6.13-4.35.19-2.06-1.75-3.83-3.78-4.24s-4.12.19-6.13.73a145.308,145.308,0,0,1-14.21,3.12,254,254,0,0,1-7.08-30.18s19.47,0,46.78,6.16q-.36,6.22-.73,12.47c-.11,1.77-.12,3.81,1.2,5a4.06,4.06,0,0,0,4.82.07,10.75,10.75,0,0,0,3.26-4,70.718,70.718,0,0,0,4.72-10.23c5.85,1.63,11.92,3.54,18.15,5.77a64.081,64.081,0,0,1-1.65,9.54c-.83,3.26-1.92,6.5-2.09,9.86a4.66,4.66,0,0,0,.38,2.48c.9,1.7,3.43,1.91,5.08.92s2.61-2.8,3.45-4.54a136.009,136.009,0,0,0,5.68-14.07c4.75,2,9.55,4.11,14.36,6.48q-.68,11.67-1.36,23.33a10.361,10.361,0,0,0,.55,5.08c.73,1.56,2.58,2.74,4.19,2.12s2.13-2.43,2.53-4q2.55-10.33,5.11-20.67c5.55,3.13,11.09,6.57,16.56,10.35q-1.89,11.31-3.77,22.62a14.52,14.52,0,0,0-.15,6.08c.56,2.1,3.08,4.05,4.79,2.7A3.12,3.12,0,0,0,832.11,422.23Z" transform="translate(5.602)" fill="#009245"/>
    <path id="Path_26" data-name="Path 26" d="M829.38,502.67l2.73-3.41v4.11C831.22,503.15,830.31,502.92,829.38,502.67Z" transform="translate(5.602)" fill="#009245"/>
    <path id="Path_27" data-name="Path 27" d="M227.64,360.52l-8.09-1.31h0c0-4.6-2.4-7.61-5.93-8.43-5.29-1.23-10.49,3-10.71,9.33a11.25,11.25,0,0,0,1.47,6h-37a10.53,10.53,0,0,0-3.26.61C156,370,145.47,377.4,145.27,377.55h0l.06.13a2.06,2.06,0,0,0,2.82,1.21l15-7.61h0a59.128,59.128,0,0,0-1.68,8.06c0,4.47,1.16,5.52,3,6.88h0v2.87a1.93,1.93,0,0,0,1.76,2.06h2v-6.28h0c11.31-9.25,22.78,3.79,35.29,0h0v4.68a1.5,1.5,0,0,0,1.37,1.6h1.58a.78.78,0,0,0,.72-.72L208,384h0c2.84-.75,4.65-3.6,5.23-7.15a14.45,14.45,0,0,0-1.09-8.07h0a98,98,0,0,0,11.25-.46c2.84-.41,5-3.21,5-6.55v-.36A.84.84,0,0,0,227.64,360.52Z" transform="translate(1.087)" fill="#6b6b6b"/>
    <path id="Path_28" data-name="Path 28" d="M203.5,364.1l-1.47-.64a3.27,3.27,0,0,1-1.54-4l1.59-4.93a2.54,2.54,0,0,1,3.4-1.81l1.47.65a3.27,3.27,0,0,1,1.54,4l-1.59,4.94a2.54,2.54,0,0,1-3.4,1.79Z" transform="translate(1.362)" fill="#6b6b6b"/>
    <g id="Group_1" data-name="Group 1" transform="translate(223.951 60.79)" clip-path="url(#clip-path)">
      <rect id="Rectangle_9" data-name="Rectangle 9" width="195.39" height="171.67" transform="translate(-13.33 -23.52)" fill="url(#linear-gradient-2)"/>
      <path id="Path_29" data-name="Path 29" d="M212.33,189.88s29.37-8.38,74.54-4.93,83.58,6.89,113.23,4.93v37.7H214.31Z" transform="translate(-222.09 -60.79)" fill="#6cb3dd"/>
      <rect id="Rectangle_10" data-name="Rectangle 10" width="173.62" height="86.4" transform="translate(-3.8 166.79)" fill="#fef1eb"/>
      <path id="Path_30" data-name="Path 30" d="M369.39,259.55A30.82,30.82,0,0,0,340.05,281h-1.46a25.5,25.5,0,0,0-20,9.6,25.44,25.44,0,0,0-16.18-5.77,25.145,25.145,0,0,0-4.28.36,32.84,32.84,0,0,0-56.5-4.86,32.85,32.85,0,1,0,13.58,49,32.9,32.9,0,0,0,28.85-1.16,25.55,25.55,0,0,0,38.31-1.83,25.57,25.57,0,0,0,38-6.45,30.8,30.8,0,1,0,9-60.27Z" transform="translate(-222.09 -60.79)" fill="#517558"/>
    </g>
    <rect id="Rectangle_12" data-name="Rectangle 12" width="163.54" height="248.39" transform="translate(223.951 60.47)" fill="#cfd3f5" opacity="0.3"/>
    <path id="Path_31" data-name="Path 31" d="M385.63,166.68v21.93L237.57,60.47H262.9Z" transform="translate(1.946)" fill="#fcfcff" opacity="0.3"/>
    <path id="Path_32" data-name="Path 32" d="M385.63,151.3v5.48L274.35,60.47h6.32Z" transform="translate(2.132)" fill="#fcfcff" opacity="0.3"/>
    <path id="Path_33" data-name="Path 33" d="M385.63,225.72v11.34L222.09,95.54V84.2Z" transform="translate(1.861)" fill="#fcfcff" opacity="0.3"/>
    <line id="Line_1" data-name="Line 1" x2="20.06" transform="translate(565.494 384)" fill="#cbd6da" stroke="#eff2f4" stroke-linecap="round" stroke-linejoin="round" stroke-width="1"/>
    <line id="Line_2" data-name="Line 2" x2="32.3" transform="translate(85.29 358.42)" fill="none" stroke="#603813" stroke-miterlimit="10" stroke-width="1"/>
  </g>
</svg>
