<svg id="Layer_1" data-name="Layer 1" xmlns="http://www.w3.org/2000/svg" viewBox="0 0 700 400"><defs><style>.cls-1{fill:none;stroke:#ffdcdc;stroke-miterlimit:10;stroke-width:7px;}</style></defs><line class="cls-1" x1="-31.55" y1="7.53" x2="731.55" y2="7.53"/><line class="cls-1" x1="-31.55" y1="19.96" x2="731.55" y2="19.96"/><line class="cls-1" x1="-31.55" y1="32.39" x2="731.55" y2="32.39"/><line class="cls-1" x1="-31.55" y1="44.83" x2="731.55" y2="44.83"/><line class="cls-1" x1="-31.55" y1="57.26" x2="731.55" y2="57.26"/><line class="cls-1" x1="-31.55" y1="69.69" x2="731.55" y2="69.69"/><line class="cls-1" x1="-31.55" y1="82.12" x2="731.55" y2="82.12"/><line class="cls-1" x1="-31.55" y1="94.56" x2="731.55" y2="94.56"/><line class="cls-1" x1="-31.55" y1="106.99" x2="731.55" y2="106.99"/><line class="cls-1" x1="-31.55" y1="119.42" x2="731.55" y2="119.42"/><line class="cls-1" x1="-31.55" y1="131.85" x2="731.55" y2="131.85"/><line class="cls-1" x1="-31.55" y1="144.29" x2="731.55" y2="144.29"/><line class="cls-1" x1="-31.55" y1="156.72" x2="731.55" y2="156.72"/><line class="cls-1" x1="-31.55" y1="169.15" x2="731.55" y2="169.15"/><line class="cls-1" x1="-31.55" y1="181.58" x2="731.55" y2="181.58"/><line class="cls-1" x1="-31.55" y1="194.02" x2="731.55" y2="194.02"/><line class="cls-1" x1="-31.55" y1="206.45" x2="731.55" y2="206.45"/><line class="cls-1" x1="-31.55" y1="218.88" x2="731.55" y2="218.88"/><line class="cls-1" x1="-31.55" y1="231.31" x2="731.55" y2="231.31"/><line class="cls-1" x1="-31.55" y1="243.75" x2="731.55" y2="243.75"/><line class="cls-1" x1="-31.55" y1="256.18" x2="731.55" y2="256.18"/><line class="cls-1" x1="-31.55" y1="268.61" x2="731.55" y2="268.61"/><line class="cls-1" x1="-31.55" y1="281.05" x2="731.55" y2="281.05"/><line class="cls-1" x1="-31.55" y1="293.48" x2="731.55" y2="293.48"/><line class="cls-1" x1="-31.55" y1="305.91" x2="731.55" y2="305.91"/><line class="cls-1" x1="-31.55" y1="318.34" x2="731.55" y2="318.34"/><line class="cls-1" x1="-31.55" y1="330.78" x2="731.55" y2="330.78"/><line class="cls-1" x1="-31.55" y1="343.21" x2="731.55" y2="343.21"/><line class="cls-1" x1="-31.55" y1="355.64" x2="731.55" y2="355.64"/><line class="cls-1" x1="-31.55" y1="368.07" x2="731.55" y2="368.07"/><line class="cls-1" x1="-31.55" y1="380.51" x2="731.55" y2="380.51"/><line class="cls-1" x1="-31.55" y1="392.94" x2="731.55" y2="392.94"/></svg>